HIERARCHY
ROOT root
{
	OFFSET 0.000000 0.000000 0.000000
	CHANNELS 6 Xposition Yposition Zposition Zrotation Yrotation Xrotation
	JOINT lhip
	{
		OFFSET 0.058581 -0.082280 -0.017664
		CHANNELS 3 Zrotation Yrotation Xrotation
		JOINT lknee
		{
			OFFSET 0.043451 -0.386469 0.008037
			CHANNELS 3 Zrotation Yrotation Xrotation
			JOINT lankle
			{
				OFFSET -0.014790 -0.426874 -0.037428
				CHANNELS 3 Zrotation Yrotation Xrotation
				JOINT ltoe
				{
					OFFSET 0.041054 -0.060286 0.122042
					CHANNELS 3 Zrotation Yrotation Xrotation
					End Site
					{
						OFFSET 0.000000 0.000000 0.000000
					}
				}
			}
		}
	}
	JOINT rhip
	{
		OFFSET -0.060310 -0.090513 -0.013543
		CHANNELS 3 Zrotation Yrotation Xrotation
		JOINT rknee
		{
			OFFSET -0.043257 -0.383688 -0.004843
			CHANNELS 3 Zrotation Yrotation Xrotation
			JOINT rankle
			{
				OFFSET 0.019056 -0.420046 -0.034562
				CHANNELS 3 Zrotation Yrotation Xrotation
				JOINT rtoe
				{
					OFFSET -0.034840 -0.062106 0.130323
					CHANNELS 3 Zrotation Yrotation Xrotation
					End Site
					{
						OFFSET 0.000000 0.000000 0.000000
					}
				}
			}
		}
	}
	JOINT lowerback
	{
		OFFSET 0.004439 0.124404 -0.038385
		CHANNELS 3 Zrotation Yrotation Xrotation
		JOINT upperback
		{
			OFFSET 0.004488 0.137956 0.026820
			CHANNELS 3 Zrotation Yrotation Xrotation
			JOINT chest
			{
				OFFSET -0.002265 0.056032 0.002855
				CHANNELS 3 Zrotation Yrotation Xrotation
				JOINT lowerneck
				{
					OFFSET -0.013390 0.211636 -0.033468
					CHANNELS 3 Zrotation Yrotation Xrotation
					JOINT upperneck
					{
						OFFSET 0.010113 0.088937 0.050410
						CHANNELS 3 Zrotation Yrotation Xrotation
						End Site
						{
							OFFSET 0.000000 0.000000 0.000000
						}
					}
				}
				JOINT lclavicle
				{
					OFFSET 0.071702 0.114000 -0.018898
					CHANNELS 3 Zrotation Yrotation Xrotation
					JOINT lshoulder
					{
						OFFSET 0.122921 0.045205 -0.019046
						CHANNELS 3 Zrotation Yrotation Xrotation
						JOINT lelbow
						{
							OFFSET 0.255332 -0.015649 -0.022946
							CHANNELS 3 Zrotation Yrotation Xrotation
							JOINT lwrist
							{
								OFFSET 0.265709 0.012698 -0.007375
								CHANNELS 3 Zrotation Yrotation Xrotation
								End Site
								{
									OFFSET 0.000000 0.000000 0.000000
								}
							}
						}
					}
				}
				JOINT rclavicle
				{
					OFFSET -0.082954 0.112472 -0.023707
					CHANNELS 3 Zrotation Yrotation Xrotation
					JOINT rshoulder
					{
						OFFSET -0.113228 0.046853 -0.008472
						CHANNELS 3 Zrotation Yrotation Xrotation
						JOINT relbow
						{
							OFFSET -0.260127 -0.014369 -0.031269
							CHANNELS 3 Zrotation Yrotation Xrotation
							JOINT rwrist
							{
								OFFSET -0.269108 0.006794 -0.006027
								CHANNELS 3 Zrotation Yrotation Xrotation
								End Site
								{
									OFFSET 0.000000 0.000000 0.000000
								}
							}
						}
					}
				}
			}
		}
	}
}
MOTION
Frames: 14
Frame Time: 0.033333
0.573076 0.236999 0.987678 87.847756 1.666495 97.093824 2.369743 0.830589 -1.132685 4.659994 2.820799 -9.358670 0.586669 9.185453 -1.658641 0.000000 -0.000000 0.000000 -3.711315 -1.029985 -6.401403 -2.476936 -3.925565 0.803975 10.502110 -1.348538 -5.575103 0.000000 -0.000000 0.000000 -0.209345 1.824141 -7.664805 -0.391103 -2.256659 -0.370792 -2.549851 3.231720 -1.793527 0.126653 -3.369571 18.331541 8.978832 8.330041 -4.253572 -11.506686 5.447875 -8.908597 -70.484279 1.262533 17.154127 24.378318 -3.782222 -12.525096 18.825602 7.018512 -13.596726 6.516987 8.740177 -7.671302 50.188757 43.680253 17.173610 -173.586933 53.358173 -170.599935 -24.724188 -4.503488 -32.464669 
0.572366 0.237071 0.987785 87.734250 1.673478 97.087012 2.353314 0.855509 -1.191517 4.683246 2.835983 -9.290357 0.567869 9.207701 -1.649581 0.000000 -0.000000 0.000000 -3.729063 -0.947125 -6.482160 -2.463790 -3.913466 0.836414 10.593231 -1.357289 -5.539217 0.000000 -0.000000 0.000000 -0.305724 1.681299 -7.727922 -0.280141 -2.342338 -0.023103 -2.427284 3.446633 -1.980805 -0.025062 -3.452783 18.630858 9.237784 8.130117 -3.923141 -11.454880 5.195613 -8.619417 -70.463269 1.024885 16.617736 24.365021 -3.160373 -13.128797 17.552652 6.928159 -14.549842 6.437311 9.071483 -7.412776 49.675855 43.534432 16.472736 -173.451946 53.556876 -170.476966 -24.177326 -4.330074 -32.251290 
0.571746 0.237053 0.987879 87.586746 1.665591 97.082916 2.324890 0.894587 -1.229014 4.678509 2.849538 -9.264367 0.649360 9.349572 -1.593443 0.000000 -0.000000 0.000000 -3.746347 -0.979845 -6.576004 -2.439874 -3.684769 0.863379 10.572085 -1.427516 -5.500797 0.000000 -0.000000 0.000000 -0.177986 1.680458 -7.535027 -0.322395 -2.290041 -0.121719 -2.431578 3.495410 -1.940711 0.002515 -3.677851 18.329299 8.796661 8.556956 -3.054764 -11.419995 5.037513 -8.437924 -70.488269 1.079211 16.946653 24.311335 -3.422941 -12.120563 18.662187 7.272543 -14.242992 6.147196 8.953423 -7.402780 49.725011 43.789040 16.494840 -173.320505 53.903132 -170.320016 -24.634886 -4.650214 -32.467675 
0.571403 0.237067 0.987960 87.535480 1.674542 97.065023 2.326023 0.891581 -1.237412 4.698166 2.796809 -9.231186 0.659048 9.420181 -1.553219 0.000000 -0.000000 0.000000 -3.735373 -1.008105 -6.580208 -2.431192 -3.580883 0.835973 10.552649 -1.470064 -5.466877 0.000000 -0.000000 0.000000 -0.061872 1.684793 -7.429545 -0.377152 -2.298347 -0.183674 -2.442453 3.507908 -1.780627 -0.000551 -3.814299 18.318520 8.606114 8.847685 -2.996592 -11.425731 4.974434 -8.460342 -70.373350 1.091321 16.942013 24.327010 -3.475353 -12.068851 18.870101 7.506530 -14.260269 5.833497 8.896127 -7.530064 49.587882 43.965338 16.341968 -173.128717 54.092012 -170.172132 -24.541928 -4.796480 -32.554486 
0.571008 0.236991 0.988001 87.491989 1.692392 97.079399 2.341119 0.881329 -1.273019 4.704238 2.827201 -9.238619 0.651029 9.444709 -1.528516 0.000000 -0.000000 0.000000 -3.716663 -0.988010 -6.626111 -2.426202 -3.560670 0.826444 10.561861 -1.464634 -5.429435 0.000000 -0.000000 0.000000 -0.029151 1.683125 -7.303454 -0.378778 -2.305190 -0.358986 -2.434624 3.523592 -1.629834 0.031385 -3.871777 18.335195 8.577130 8.864497 -3.081811 -11.384762 5.073188 -8.612272 -70.279378 1.123950 16.918944 24.347851 -3.497071 -12.145348 18.688611 7.484311 -14.386682 5.739280 8.890206 -7.633111 49.341786 44.066527 16.187461 -172.947434 54.181614 -169.922415 -24.546077 -4.724717 -32.306415 
0.570778 0.236915 0.988016 87.462539 1.708665 97.104359 2.357887 0.893621 -1.309333 4.709863 2.878332 -9.250564 0.618062 9.419640 -1.546372 0.000000 -0.000000 0.000000 -3.706739 -0.947234 -6.676930 -2.409277 -3.574652 0.820693 10.588493 -1.470475 -5.404593 0.000000 -0.000000 0.000000 0.005118 1.685791 -7.272962 -0.387314 -2.301753 -0.410406 -2.435061 3.560116 -1.558592 0.116875 -3.773925 18.311303 8.572788 8.752242 -3.174458 -11.383995 5.126825 -8.796431 -70.093500 1.098579 16.615456 24.446928 -3.346639 -12.816104 17.491564 7.061541 -14.939161 5.621878 8.968433 -7.704374 48.970814 43.996378 15.963032 -172.776839 54.144669 -169.663312 -24.285119 -4.561597 -32.158946 
0.570639 0.236899 0.987980 87.481165 1.705228 97.105289 2.360470 0.896129 -1.343516 4.708966 2.853342 -9.210288 0.612512 9.419802 -1.563598 0.000000 -0.000000 0.000000 -3.708529 -0.971937 -6.681177 -2.393900 -3.570892 0.803075 10.555436 -1.476325 -5.415067 0.000000 -0.000000 0.000000 0.023531 1.690768 -7.228821 -0.401556 -2.310915 -0.392053 -2.423290 3.542081 -1.579678 0.096527 -3.766878 18.298463 8.542724 8.753786 -3.249709 -11.465910 5.103527 -8.883762 -69.943000 1.079898 16.558030 24.492783 -3.466229 -12.985843 17.621287 6.966536 -14.766792 5.632158 9.019941 -7.743383 48.675401 43.946526 15.801389 -172.722346 54.152173 -169.769767 -24.342458 -4.492131 -32.033486 
0.570574 0.236851 0.987955 87.513744 1.699622 97.100171 2.368626 0.896166 -1.366166 4.699793 2.846905 -9.187814 0.589526 9.391188 -1.588736 0.000000 -0.000000 0.000000 -3.709797 -0.983940 -6.679050 -2.387082 -3.605482 0.811508 10.524266 -1.449962 -5.420976 0.000000 -0.000000 0.000000 0.016492 1.694879 -7.192296 -0.395508 -2.323905 -0.393593 -2.409031 3.533416 -1.613980 0.044632 -3.721435 18.343986 8.614538 8.724555 -3.306783 -11.511925 5.029172 -8.879904 -69.866177 1.001911 16.590550 24.528563 -3.478923 -13.090923 17.748930 6.937231 -14.642003 5.666548 9.064675 -7.733520 48.577799 43.873140 15.735275 -172.652013 54.166142 -169.764763 -24.464095 -4.393481 -31.860531 
0.570583 0.236732 0.987979 87.559755 1.701355 97.075643 2.386623 0.906376 -1.359918 4.698405 2.812996 -9.167603 0.570600 9.381314 -1.586621 0.000000 -0.000000 0.000000 -3.684526 -1.023769 -6.638075 -2.403217 -3.575031 0.798145 10.521055 -1.449526 -5.406218 0.000000 -0.000000 0.000000 -0.005556 1.686651 -7.202156 -0.382566 -2.326531 -0.332919 -2.387758 3.532106 -1.638066 0.000508 -3.837755 18.356713 8.665899 8.670899 -3.423445 -11.505150 4.936943 -8.820034 -69.978260 0.986651 16.947277 24.563794 -3.899653 -12.322993 18.996953 7.120350 -13.882998 5.639144 9.033770 -7.743234 48.636340 43.876633 15.780408 -172.723288 54.194851 -169.879260 -25.029446 -4.509243 -32.000806 
0.570728 0.236615 0.987942 87.585074 1.699339 97.056662 2.399122 0.899033 -1.324861 4.681643 2.822075 -9.184136 0.563881 9.353784 -1.591827 0.000000 -0.000000 0.000000 -3.671297 -1.056800 -6.598087 -2.412166 -3.583365 0.779921 10.516031 -1.422505 -5.413104 0.000000 -0.000000 0.000000 -0.002835 1.725153 -7.163860 -0.392288 -2.316998 -0.380802 -2.400439 3.525301 -1.668863 -0.009899 -3.865443 18.393464 8.754544 8.581682 -3.501266 -11.486639 4.898535 -8.801183 -70.033391 0.875846 17.019655 24.668370 -3.851931 -12.390918 19.003109 7.210478 -13.885662 5.694434 9.061689 -7.765364 48.682616 43.782755 15.789031 -172.684527 54.210806 -169.819437 -24.704620 -4.493546 -32.024426 
0.570771 0.236495 0.987913 87.599383 1.709558 97.046284 2.405253 0.895237 -1.312594 4.714894 2.835777 -9.181416 0.559664 9.337419 -1.628386 0.000000 -0.000000 0.000000 -3.654841 -1.060966 -6.590724 -2.413492 -3.616101 0.804301 10.507038 -1.375597 -5.435646 0.000000 -0.000000 0.000000 -0.002793 1.720165 -7.174825 -0.380389 -2.325966 -0.366291 -2.397466 3.552626 -1.636071 -0.061265 -3.773305 18.481876 8.873274 8.537541 -3.770057 -11.520037 4.893063 -8.930291 -70.052784 0.847449 17.130965 24.695461 -3.895493 -12.465286 19.032812 7.213597 -13.801765 5.742092 9.107379 -7.850451 48.653912 43.722144 15.838531 -172.687479 54.234481 -169.860408 -24.786471 -4.471912 -31.782192 
0.570870 0.236327 0.987970 87.582288 1.690091 97.019849 2.381929 0.850966 -1.242465 4.721805 2.875473 -9.222021 0.583839 9.308493 -1.657278 0.000000 -0.000000 0.000000 -3.684718 -1.048665 -6.558021 -2.402645 -3.703705 0.804820 10.459766 -1.291336 -5.407542 0.000000 -0.000000 0.000000 -0.037162 1.678865 -7.187935 -0.356282 -2.327680 -0.349962 -2.362013 3.554856 -1.415192 0.015434 -3.502195 18.602199 8.836429 8.710295 -4.485674 -11.652977 5.088276 -9.478915 -69.954140 0.968240 17.317754 24.561735 -3.998449 -12.838042 19.019131 7.026414 -13.447610 5.755000 9.087224 -8.231902 48.698878 43.681539 16.168440 -172.552968 54.320323 -169.959875 -24.600065 -4.284536 -31.721868 
0.570983 0.236172 0.987917 87.566547 1.701724 97.017899 2.405714 0.875676 -1.216645 4.716953 2.877115 -9.244741 0.537141 9.293651 -1.676503 0.000000 -0.000000 0.000000 -3.669007 -1.055303 -6.535959 -2.399702 -3.724959 0.776036 10.475179 -1.276374 -5.418182 0.000000 -0.000000 0.000000 -0.037214 1.697690 -7.251175 -0.367699 -2.336383 -0.301373 -2.389160 3.586015 -1.433225 0.036965 -3.391356 18.775666 9.165355 8.642874 -4.717331 -11.587736 5.027145 -9.455883 -70.023043 0.912729 17.284318 24.539980 -4.019045 -12.890270 19.061730 7.016602 -13.348069 5.764166 9.155349 -8.203364 48.608908 43.589532 16.014699 -172.634710 54.316438 -170.150033 -24.657896 -4.309910 -31.932379 
0.571020 0.236023 0.987834 87.568260 1.703314 97.024111 2.428232 0.866395 -1.215260 4.702813 2.881816 -9.254411 0.547661 9.258048 -1.664431 0.000000 -0.000000 0.000000 -3.653630 -1.053162 -6.536445 -2.406855 -3.733270 0.764225 10.476127 -1.267259 -5.437545 0.000000 -0.000000 0.000000 -0.020824 1.728894 -7.237320 -0.392927 -2.321932 -0.329725 -2.425839 3.576869 -1.475572 0.036762 -3.403723 18.758124 9.223268 8.608470 -4.674388 -11.563300 4.988624 -9.443116 -70.064765 0.886967 17.330538 24.538507 -4.021218 -12.880050 19.031372 7.024322 -13.350817 5.804908 9.120253 -8.206205 48.615338 43.582032 15.979719 -172.646491 54.303769 -170.046061 -24.614413 -4.279829 -31.584119 
